<?xml version="1.0" encoding="utf-8"?>
<!-- Generator: Adobe Illustrator 21.0.0, SVG Export Plug-In . SVG Version: 6.00 Build 0)  -->
<svg version="1.1" id="Layer_1" xmlns="http://www.w3.org/2000/svg" xmlns:xlink="http://www.w3.org/1999/xlink" x="0px" y="0px"
	 viewBox="0 0 117 117" style="enable-background:new 0 0 117 117;" xml:space="preserve">
<style type="text/css">
	.st0{fill:#FFFFFF;}
	.st1{fill:#EB5424;}
	.st2{fill:#333333;}
</style>
<title>Auth0 Authorization</title>
<desc>Created with Sketch.</desc>
<g>
	<path id="Shape" class="st0" d="M96.5,116.5h-76c-11,0-20-9-20-20v-76c0-11,9-20,20-20h76c11,0,20,9,20,20v76
		C116.5,107.5,107.5,116.5,96.5,116.5L96.5,116.5z"/>
	<g>
		<path class="st1" d="M96.9,79.1c0.9,0,1.6-0.7,1.6-1.6c0-0.9-0.7-1.6-1.6-1.6h-3.2c-0.3-1.6-0.8-3.1-1.7-4.4l4.8-2.3
			c0.8-0.4,1.1-1.3,0.8-2.1c-0.4-0.8-1.3-1.1-2.1-0.8l-5.6,2.7c-0.6-0.5-1.2-0.9-1.8-1.3c0.3-0.7,0.4-1.4,0.4-2.2
			c0-3.2-2.6-5.9-5.9-5.9c-3.2,0-5.9,2.6-5.9,5.9c0,0.7,0.1,1.4,0.4,2.1c-0.7,0.4-1.3,0.8-1.9,1.3l-5.5-2.6c-0.8-0.4-1.7,0-2.1,0.8
			c-0.4,0.8,0,1.7,0.8,2.1l4.7,2.2c-0.9,1.3-1.5,2.8-1.7,4.4h-3c-0.9,0-1.6,0.7-1.6,1.6c0,0.9,0.7,1.6,1.6,1.6h2.9
			c0.2,1.8,0.8,3.4,1.7,4.8l-4.7,2.2c-0.8,0.4-1.1,1.3-0.8,2.1c0.3,0.6,0.8,0.9,1.4,0.9c0.2,0,0.5,0,0.7-0.1l5.5-2.6
			c2,1.7,4.5,2.7,7.3,2.7c2.8,0,5.4-1,7.4-2.8l5.6,2.6c0.2,0.1,0.4,0.1,0.7,0.1c0.6,0,1.2-0.3,1.4-0.9c0.4-0.8,0-1.7-0.8-2.1
			l-4.8-2.3c0.9-1.4,1.5-3,1.7-4.7H96.9z M80,65.7c0-1.5,1.2-2.7,2.7-2.7s2.7,1.2,2.7,2.7c0,0.4-0.1,0.7-0.2,1.1
			c-0.8-0.2-1.7-0.3-2.6-0.3c-0.8,0-1.7,0.1-2.4,0.3C80,66.4,80,66,80,65.7z M82.6,85.9c-4.5,0-8.1-3.6-8.2-8.1c0-0.1,0-0.2,0-0.3
			c0-0.1,0-0.1,0-0.2c0.2-4.3,3.8-7.7,8.1-7.7c4.5,0,8.2,3.7,8.2,8.2C90.8,82.2,87.1,85.9,82.6,85.9z"/>
		<path class="st2" d="M81.1,27.9H24.3c-3.2,0-5.8,2.6-5.8,5.8v40.6c0,3.2,2.6,5.8,5.8,5.8h34.9c0.9,0,1.6-0.7,1.6-1.6
			c0-0.9-0.7-1.6-1.6-1.6H24.3c-1.5,0-2.7-1.2-2.7-2.7V40.5h62.1v12c0,0.9,0.7,1.6,1.6,1.6s1.6-0.7,1.6-1.6V33.7
			C86.9,30.5,84.3,27.9,81.1,27.9z M21.6,37.3v-3.6c0-1.5,1.2-2.7,2.7-2.7h56.8c1.5,0,2.7,1.2,2.7,2.7v3.6H21.6z"/>
		<path class="st2" d="M55,53H32c-0.9,0-1.6-0.7-1.6-1.6s0.7-1.6,1.6-1.6h23c0.9,0,1.6,0.7,1.6,1.6S55.9,53,55,53z"/>
		<path class="st2" d="M62.3,62.4h-23c-0.9,0-1.6-0.7-1.6-1.6s0.7-1.6,1.6-1.6h23c0.9,0,1.6,0.7,1.6,1.6S63.2,62.4,62.3,62.4z"/>
	</g>
</g>
</svg>
